<svg width="22" height="22" viewBox="0 0 22 22" fill="none" xmlns="http://www.w3.org/2000/svg">
<path d="M15.375 0.5C13.8061 0.5 12.3842 0.794 11.273 1.34787C10.1626 1.90175 9.25 2.80387 9.25 4V7.5C9.25 7.61287 9.28762 7.72225 9.30512 7.82812C8.42927 7.60556 7.52867 7.4953 6.625 7.5C5.05612 7.5 3.63425 7.794 2.523 8.34787C1.41262 8.90175 0.5 9.80387 0.5 11V18C0.5 19.1961 1.41263 20.0982 2.52388 20.6521C3.63425 21.206 5.05612 21.5 6.625 21.5C8.19387 21.5 9.61575 21.206 10.727 20.6521C11.8365 20.0982 12.75 19.1961 12.75 18V17.6447C13.606 17.8762 14.4883 17.9956 15.375 18C16.9439 18 18.3657 17.706 19.477 17.1521C20.5865 16.5982 21.5 15.6961 21.5 14.5V4C21.5 2.80387 20.5874 1.90175 19.4761 1.34787C18.3666 0.794 16.9447 0.5 15.375 0.5ZM15.375 2.25C16.7076 2.25 17.8941 2.537 18.6834 2.93338C19.4735 3.32975 19.75 3.74712 19.75 4C19.75 4.25375 19.4735 4.67025 18.6834 5.06662C17.895 5.463 16.7076 5.75 15.375 5.75C14.0424 5.75 12.8559 5.463 12.0666 5.06662C11.2765 4.67025 11 4.25287 11 4C11 3.74625 11.2765 3.32975 12.0666 2.93338C12.855 2.537 14.0424 2.25 15.375 2.25ZM11 6.4885C11.0919 6.53925 11.1776 6.60488 11.2739 6.65212C12.3842 7.206 13.8061 7.5 15.375 7.5C16.9439 7.5 18.3657 7.206 19.477 6.65212C19.5724 6.60488 19.6581 6.53925 19.75 6.4885V7.5C19.75 7.75375 19.4735 8.17025 18.6834 8.56662C17.8941 8.963 16.7076 9.25 15.375 9.25C14.0424 9.25 12.8559 8.963 12.0666 8.56662C11.2765 8.17025 11 7.75287 11 7.5V6.4885ZM6.625 9.25C7.95762 9.25 9.14412 9.537 9.93337 9.93337C10.7235 10.3298 11 10.7471 11 11C11 11.2537 10.7235 11.6702 9.93337 12.0666C9.14412 12.463 7.95762 12.75 6.625 12.75C5.29237 12.75 4.10587 12.463 3.31662 12.0666C2.5265 11.6702 2.25 11.2529 2.25 11C2.25 10.7463 2.5265 10.3298 3.31662 9.93337C4.105 9.537 5.29237 9.25 6.625 9.25ZM19.75 9.9885V11C19.75 11.2537 19.4735 11.6702 18.6834 12.0666C17.8941 12.463 16.7076 12.75 15.375 12.75C14.4837 12.7548 13.5973 12.6163 12.75 12.3396V11C12.75 10.8871 12.7124 10.7778 12.6949 10.6719C13.5086 10.8836 14.4107 11 15.375 11C16.9439 11 18.3657 10.706 19.477 10.1521C19.5724 10.1049 19.6581 10.0392 19.75 9.9885ZM2.25 13.4885C2.34187 13.5392 2.42763 13.6049 2.52388 13.6521C3.63425 14.206 5.05612 14.5 6.625 14.5C8.19387 14.5 9.61575 14.206 10.727 13.6521C10.8224 13.6049 10.9081 13.5392 11 13.4885V14.5C11 14.7537 10.7235 15.1702 9.93337 15.5666C9.14412 15.963 7.95762 16.25 6.625 16.25C5.29237 16.25 4.10587 15.963 3.31662 15.5666C2.5265 15.1702 2.25 14.7529 2.25 14.5V13.4885ZM19.75 13.4885V14.5C19.75 14.7537 19.4735 15.1702 18.6834 15.5666C17.8941 15.963 16.7076 16.25 15.375 16.25C14.3801 16.25 13.4815 16.11 12.75 15.8668V14.1719C13.5532 14.3836 14.4282 14.5 15.375 14.5C16.9439 14.5 18.3657 14.206 19.477 13.6521C19.5724 13.6049 19.6581 13.5392 19.75 13.4885ZM2.25 16.9885C2.34187 17.0392 2.42763 17.1049 2.52388 17.1521C3.63425 17.706 5.05612 18 6.625 18C8.19387 18 9.61575 17.706 10.727 17.1521C10.8224 17.1049 10.9081 17.0392 11 16.9885V18C11 18.2537 10.7235 18.6702 9.93337 19.0666C9.14412 19.463 7.95762 19.75 6.625 19.75C5.29237 19.75 4.10587 19.463 3.31662 19.0666C2.5265 18.6702 2.25 18.2529 2.25 18V16.9885Z" fill="white"/>
</svg>
