<svg width="24" height="24" viewBox="0 0 24 24" fill="none" xmlns="http://www.w3.org/2000/svg">
<path d="M16.57 21.9999C16.8356 22.0014 17.0989 21.9501 17.3444 21.8488C17.5899 21.7475 17.8128 21.5983 18 21.4099L20.71 18.6999C20.8963 18.5125 21.0008 18.2591 21.0008 17.9949C21.0008 17.7307 20.8963 17.4773 20.71 17.2899L16.71 13.2899C16.5227 13.1036 16.2692 12.9991 16.005 12.9991C15.7408 12.9991 15.4874 13.1036 15.3 13.2899L13.7 14.8799C12.5923 14.5845 11.5663 14.0408 10.7 13.2899C9.95115 12.4222 9.40766 11.3968 9.11003 10.2899L10.7 8.6899C10.8863 8.50253 10.9908 8.24908 10.9908 7.9849C10.9908 7.72071 10.8863 7.46726 10.7 7.2799L6.70003 3.2799C6.51267 3.09365 6.25922 2.9891 5.99503 2.9891C5.73085 2.9891 5.4774 3.09365 5.29003 3.2799L2.59003 5.9999C2.40167 6.18714 2.25248 6.41002 2.15118 6.65555C2.04988 6.90107 1.9985 7.1643 2.00003 7.4299C2.09076 11.2722 3.62611 14.9392 6.30003 17.6999C9.06075 20.3738 12.7277 21.9092 16.57 21.9999ZM6.00003 5.4099L8.59003 7.9999L7.30003 9.2899C7.17785 9.40434 7.08636 9.54763 7.03395 9.70663C6.98153 9.86562 6.96987 10.0352 7.00003 10.1999C7.3738 11.8703 8.16514 13.4185 9.30003 14.6999C10.5804 15.8362 12.1291 16.6278 13.8 16.9999C13.9622 17.0338 14.1303 17.0269 14.2891 16.9797C14.4479 16.9326 14.5926 16.8468 14.71 16.7299L16 15.4099L18.59 17.9999L16.59 19.9999C13.2738 19.9145 10.1095 18.591 7.72003 16.2899C5.41295 13.8994 4.08564 10.731 4.00003 7.4099L6.00003 5.4099ZM20 10.9999H22C22.026 9.8109 21.8109 8.62895 21.3678 7.5253C20.9247 6.42165 20.2627 5.41914 19.4217 4.57819C18.5808 3.73724 17.5783 3.07526 16.4746 2.63215C15.371 2.18904 14.189 1.97397 13 1.9999V3.9999C13.9279 3.9678 14.8525 4.12691 15.7163 4.46733C16.5801 4.80775 17.3647 5.32222 18.0212 5.97874C18.6777 6.63526 19.1922 7.4198 19.5326 8.2836C19.873 9.1474 20.0321 10.072 20 10.9999Z" fill="white"/>
<path d="M13 8C15.1 8 16 8.9 16 11H18C18 7.78 16.22 6 13 6V8Z" fill="white"/>
</svg>
