<svg width="24" height="24" viewBox="0 0 24 24" fill="none" xmlns="http://www.w3.org/2000/svg">
<path d="M13.1467 6.9801C11.7394 6.7051 10.2834 6.82509 8.94006 7.32676C8.87484 7.35259 8.81534 7.39101 8.76496 7.43983C8.71459 7.48865 8.67432 7.54692 8.64647 7.6113C8.5902 7.74132 8.5879 7.88837 8.64006 8.0201C8.69222 8.15182 8.79457 8.25743 8.92459 8.31369C9.05462 8.36995 9.20167 8.37226 9.33339 8.3201C10.49 7.88276 11.7447 7.77206 12.9601 8.0001C13.0313 8.01885 13.1057 8.02263 13.1784 8.01122C13.2512 7.99981 13.3208 7.97344 13.3829 7.93378C13.445 7.89412 13.4982 7.84203 13.5391 7.78079C13.5801 7.71955 13.6079 7.65049 13.6208 7.57797C13.6338 7.50544 13.6316 7.43103 13.6143 7.35941C13.597 7.28779 13.5651 7.22052 13.5206 7.16184C13.476 7.10317 13.4198 7.05435 13.3555 7.01849C13.2911 6.98262 13.2201 6.96047 13.1467 6.95343V6.9801Z" fill="black"/>
<path d="M16.9203 12.0467C17.4211 12.0467 17.827 11.6408 17.827 11.1401C17.827 10.6393 17.4211 10.2334 16.9203 10.2334C16.4196 10.2334 16.0137 10.6393 16.0137 11.1401C16.0137 11.6408 16.4196 12.0467 16.9203 12.0467Z" fill="black"/>
<path d="M23.6731 12.4199C23.6113 12.3285 23.5278 12.2538 23.4301 12.2026C23.3323 12.1514 23.2234 12.1253 23.1131 12.1266C22.5745 12.0518 22.0803 11.787 21.7198 11.3799C21.0259 10.6215 20.4363 9.77407 19.9664 8.8599L21.8864 5.8599C22.0029 5.68605 22.0743 5.48592 22.0941 5.27758C22.1139 5.06923 22.0815 4.85924 21.9998 4.66657C21.9179 4.49128 21.7943 4.3388 21.6396 4.22254C21.485 4.10629 21.3042 4.02983 21.1131 3.9999C19.8921 3.83536 18.6494 4.00827 17.5198 4.4999C16.8724 4.78507 16.2632 5.15013 15.7064 5.58657C14.616 5.09762 13.4549 4.78484 12.2664 4.6599C7.53975 4.1999 3.21975 7.26657 2.66642 11.3332C2.45078 11.2362 2.25765 11.0955 2.09927 10.9199C1.9409 10.7443 1.82074 10.5377 1.74642 10.3132C1.69889 10.1593 1.68266 9.99743 1.69869 9.83713C1.71472 9.67683 1.76268 9.52137 1.83975 9.3799C1.90887 9.26113 2.00765 9.16235 2.12642 9.09323C2.2074 9.04421 2.27794 8.97971 2.33399 8.90342C2.39005 8.82714 2.43053 8.74056 2.45312 8.64863C2.47572 8.5567 2.47999 8.46122 2.46568 8.36764C2.45138 8.27406 2.41878 8.18422 2.36975 8.10323C2.32073 8.02225 2.25623 7.95172 2.17995 7.89566C2.10366 7.83961 2.01708 7.79913 1.92515 7.77653C1.83322 7.75394 1.73774 7.74967 1.64416 7.76397C1.55058 7.77828 1.46074 7.81087 1.37975 7.8599C1.05703 8.05798 0.790718 8.33578 0.606421 8.66657C0.435076 8.97701 0.327365 9.3185 0.28959 9.67107C0.251814 10.0236 0.284734 10.3802 0.386421 10.7199C0.511587 11.1315 0.719151 11.5134 0.996497 11.8423C1.27384 12.1713 1.61518 12.4403 1.99975 12.6332L2.61309 12.9399C2.68971 14.5627 3.1029 16.1519 3.82642 17.6066L3.93975 17.8599C4.51798 19.0828 5.2555 20.2238 6.13309 21.2532C6.19556 21.3243 6.27246 21.3813 6.35867 21.4204C6.44489 21.4595 6.53843 21.4798 6.63309 21.4799H9.64642C9.75561 21.4794 9.86299 21.452 9.95914 21.4002C10.0553 21.3485 10.1372 21.2739 10.1978 21.183C10.2584 21.0922 10.2957 20.9879 10.3065 20.8792C10.3173 20.7705 10.3012 20.6609 10.2598 20.5599L9.99975 19.9599L10.7864 20.0466C11.6731 20.1342 12.5664 20.1342 13.4531 20.0466C13.6998 20.4466 13.9664 20.8466 14.2598 21.2399C14.3211 21.3239 14.4014 21.3924 14.494 21.4399C14.5866 21.4873 14.689 21.5125 14.7931 21.5132H17.6864C17.7965 21.5131 17.9048 21.4858 18.0017 21.4337C18.0986 21.3816 18.1811 21.3063 18.2418 21.2145C18.3025 21.1228 18.3396 21.0174 18.3497 20.9078C18.3598 20.7983 18.3427 20.6879 18.2998 20.5866C18.1864 20.3199 18.0731 20.0332 17.9864 19.7866C17.8664 19.4332 17.7731 19.1199 17.6998 18.8199C18.436 18.4224 19.1117 17.9218 19.7064 17.3332C20.3707 17.4135 21.0422 17.4135 21.7064 17.3332C21.8217 17.3158 21.9303 17.2685 22.0216 17.1959C22.1128 17.1234 22.1834 17.0282 22.2264 16.9199L23.7331 13.0466C23.7755 12.9453 23.7922 12.835 23.7817 12.7257C23.7713 12.6164 23.7339 12.5113 23.6731 12.4199ZM21.1531 16.0466C20.6297 16.0764 20.1047 16.0518 19.5864 15.9732C18.9962 15.8735 18.4264 15.6776 17.8998 15.3932C17.7438 15.3159 17.5637 15.3026 17.3981 15.3563C17.2325 15.41 17.0944 15.5263 17.0134 15.6804C16.9325 15.8345 16.915 16.0142 16.9647 16.1811C17.0145 16.3479 17.1276 16.4887 17.2798 16.5732C17.5584 16.7193 17.8456 16.8484 18.1398 16.9599C17.7762 17.2703 17.3726 17.5304 16.9398 17.7332L16.2331 18.0532C16.2331 18.0532 16.5598 19.5132 16.7798 20.1599H15.1931C15.0331 19.9332 14.2264 18.5866 14.2264 18.5866L13.7798 18.6466C12.8415 18.7819 11.8908 18.8087 10.9464 18.7266C10.5064 18.6866 9.77309 18.5932 9.19975 18.4932L8.16642 18.3132C8.16642 18.3132 8.58642 19.9332 8.66642 20.1399H6.94642C6.24383 19.2796 5.64835 18.3372 5.17309 17.3332L5.05309 17.0732C4.18689 15.4059 3.8211 13.5237 3.99975 11.6532C4.35975 8.19323 8.07975 5.5799 12.1264 5.9599C13.3036 6.09186 14.4492 6.42563 15.5131 6.94657L15.9264 7.1399L16.2598 6.82657C16.7789 6.36269 17.3656 5.98053 17.9998 5.69324C18.8388 5.32933 19.7553 5.18039 20.6664 5.2599L18.4131 8.78657L18.5798 9.1199C19.162 10.2927 19.9047 11.3786 20.7864 12.3466C21.196 12.7468 21.6809 13.0618 22.2131 13.2732L21.1531 16.0466Z" fill="black"/>
</svg>
