<svg width="24" height="22" viewBox="0 0 24 22" fill="none" xmlns="http://www.w3.org/2000/svg">
<path d="M14.004 9.24445C13.9089 9.24381 13.8175 9.2808 13.7496 9.34734C13.6817 9.41389 13.6429 9.50459 13.6416 9.59965V12.2541C13.6429 12.3493 13.6818 12.4402 13.75 12.5068C13.8182 12.5734 13.9099 12.6102 14.0052 12.6093H22.0008C22.0961 12.6102 22.1878 12.5734 22.256 12.5068C22.3242 12.4402 22.3631 12.3493 22.3644 12.2541V9.59965C22.3631 9.50438 22.3242 9.4135 22.256 9.34692C22.1878 9.28033 22.0961 9.24349 22.0008 9.24445H14.0052H14.004ZM18.9072 0.801249C20.0136 0.854049 20.8092 1.07245 21.3132 1.53565C21.8112 1.99405 22.0668 2.65765 22.1172 3.53605V6.05245C22.1147 6.26675 22.0272 6.47129 21.874 6.62113C21.7207 6.77098 21.5143 6.85389 21.3 6.85165C21.1938 6.85292 21.0884 6.83325 20.9897 6.79377C20.8911 6.75429 20.8013 6.69578 20.7253 6.62156C20.6493 6.54735 20.5886 6.45889 20.5468 6.36124C20.505 6.26359 20.4829 6.15866 20.4816 6.05245L20.4828 3.58165C20.4564 3.12565 20.3472 2.84245 20.1912 2.69845C20.04 2.55925 19.5792 2.43445 18.8676 2.39845H3.1764C2.532 2.42245 2.1132 2.54485 1.9104 2.71885C1.7544 2.85205 1.6368 3.21925 1.6356 3.85405L1.632 17.9781C1.692 18.5949 1.8276 19.0065 2.0016 19.2117C2.1336 19.3677 2.5428 19.5237 3.1452 19.6005H18.8844C19.6212 19.6149 20.0556 19.5045 20.202 19.3569C20.364 19.1925 20.4816 18.7605 20.4816 18.0537V15.5997C20.4816 15.1593 20.8476 14.8005 21.3 14.8005C21.7512 14.8005 22.1172 15.1593 22.1172 15.5997V18.0537C22.1172 19.1337 21.8964 19.9413 21.3792 20.4657C20.8464 21.0057 19.9992 21.2217 18.8676 21.1977L3.048 21.1941C1.9716 21.0693 1.2 20.7741 0.7404 20.2305C0.324 19.7385 0.0924 19.0365 0 18.0549V3.85285C0.0024 2.80165 0.2544 2.01085 0.8328 1.51645C1.3632 1.06045 2.1288 0.838449 3.1452 0.800049H18.9072V0.801249ZM22.0008 7.64605C23.1048 7.64605 24 8.52085 24 9.59965V12.2541C24 13.3329 23.1048 14.2077 22.0008 14.2077H14.0052C12.9012 14.2077 12.006 13.3317 12.006 12.2541V9.59965C12.006 8.52085 12.9012 7.64605 14.0052 7.64605H22.0008Z" fill="black"/>
</svg>
