<svg width="64" height="64" xmlns="http://www.w3.org/2000/svg">
 <defs>
  <linearGradient spreadMethod="pad" y2="1" x2="1" y1="0" x1="0" id="svg_19">
   <stop offset="0" stop-opacity="0.99219" stop-color="#ffdddd"/>
   <stop offset="1" stop-opacity="0.99219" stop-color="#ff0000"/>
  </linearGradient>
  <linearGradient y2="1" x2="1" y1="0" x1="0" id="svg_20">
   <stop offset="0" stop-opacity="0.99609" stop-color="#b5e7ff"/>
   <stop offset="1" stop-opacity="0.99609" stop-color="#249191"/>
  </linearGradient>
 </defs>
 <g>
  <title>Layer 1</title>
  <path stroke="url(#svg_20)" id="svg_5" d="m32.31534,8c-13.38324,0 -24.23235,9.25186 -24.23235,20.66425c0,3.89995 1.28259,7.54324 3.48958,10.65421l-3.48958,8.69863l9.71539,-2.83623c4.04852,2.59218 9.06467,4.14694 14.51696,4.14694c13.38325,0 24.23236,-9.25187 24.23236,-20.66354c0,-11.41239 -10.84911,-20.66425 -24.23236,-20.66425l0,0z" fill="#ffffff"/>
  <path stroke="url(#svg_19)" stroke-width="2" id="svg_7" d="m27.48473,40.14055c-8.44186,-5.84126 -11.46017,-9.53634 -11.48463,-14.05978c-0.02231,-4.12367 3.70363,-8.10362 7.56491,-8.08067c1.92815,0.01148 6.06416,1.52922 7.52873,2.76276c0.73794,0.62153 1.08746,0.56024 2.7304,-0.47878c4.47139,-2.82776 8.83775,-2.88711 11.6656,-0.15856c4.5195,4.3608 3.69667,9.56839 -2.36534,14.97006c-3.22292,2.87184 -10.26106,7.96666 -11.0054,7.96666c-0.22649,0 -2.31191,-1.31476 -4.63427,-2.92169l0,0z" fill="url(#svg_19)"/>
  <line id="svg_14" y2="54" x2="56" y1="54" x1="8" stroke-dasharray="5,2,2,2,2,2" stroke-width="2" stroke="#FABA6F" fill="none"/>
 </g>
</svg>